<mxfile host="app.diagrams.net" agent="Mozilla/5.0 (Windows NT 10.0; Win64; x64) AppleWebKit/537.36 (KHTML, like Gecko) Chrome/141.0.0.0 Safari/537.36" version="28.2.8">
  <diagram name="Página-1" id="RQt8iuJqbT9cStQgdcwt">
    <mxGraphModel dx="4168" dy="3417" grid="1" gridSize="10" guides="1" tooltips="1" connect="1" arrows="1" fold="1" page="1" pageScale="1" pageWidth="827" pageHeight="1169" math="0" shadow="0">
      <root>
        <mxCell id="0" />
        <mxCell id="1" parent="0" />
        <mxCell id="kG0N8SlaPU2TVyJFACg0-3" value="" style="rounded=0;whiteSpace=wrap;html=1;fillColor=none;" parent="1" vertex="1">
          <mxGeometry x="118" y="70" width="422" height="220" as="geometry" />
        </mxCell>
        <mxCell id="kG0N8SlaPU2TVyJFACg0-5" value="" style="edgeStyle=orthogonalEdgeStyle;rounded=0;orthogonalLoop=1;jettySize=auto;html=1;" parent="1" source="kG0N8SlaPU2TVyJFACg0-6" target="kG0N8SlaPU2TVyJFACg0-10" edge="1">
          <mxGeometry relative="1" as="geometry" />
        </mxCell>
        <mxCell id="kG0N8SlaPU2TVyJFACg0-6" value="Energía" style="text;html=1;whiteSpace=wrap;strokeColor=none;fillColor=none;align=center;verticalAlign=middle;rounded=0;" parent="1" vertex="1">
          <mxGeometry x="20" y="103.74000000000001" width="60" height="30" as="geometry" />
        </mxCell>
        <mxCell id="kG0N8SlaPU2TVyJFACg0-7" value="&lt;span style=&quot;&quot;&gt;Acondicionar&amp;nbsp;&lt;/span&gt;&lt;div style=&quot;&quot;&gt;Sensores&lt;/div&gt;" style="whiteSpace=wrap;html=1;align=center;" parent="1" vertex="1">
          <mxGeometry x="165.75" y="172.62" width="78.5" height="34.76" as="geometry" />
        </mxCell>
        <mxCell id="kG0N8SlaPU2TVyJFACg0-8" value="Señal&amp;nbsp;&lt;div&gt;ON / OFF&lt;/div&gt;" style="text;html=1;whiteSpace=wrap;strokeColor=none;fillColor=none;align=center;verticalAlign=middle;rounded=0;" parent="1" vertex="1">
          <mxGeometry x="20" y="145.24" width="60" height="30" as="geometry" />
        </mxCell>
        <mxCell id="kG0N8SlaPU2TVyJFACg0-9" value="" style="edgeStyle=orthogonalEdgeStyle;rounded=0;orthogonalLoop=1;jettySize=auto;html=1;" parent="1" source="kG0N8SlaPU2TVyJFACg0-10" target="kG0N8SlaPU2TVyJFACg0-15" edge="1">
          <mxGeometry relative="1" as="geometry" />
        </mxCell>
        <mxCell id="kG0N8SlaPU2TVyJFACg0-10" value="Recibir Energía" style="whiteSpace=wrap;html=1;" parent="1" vertex="1">
          <mxGeometry x="160" y="101.74" width="90" height="35" as="geometry" />
        </mxCell>
        <mxCell id="kG0N8SlaPU2TVyJFACg0-14" value="" style="edgeStyle=orthogonalEdgeStyle;rounded=0;orthogonalLoop=1;jettySize=auto;html=1;" parent="1" source="kG0N8SlaPU2TVyJFACg0-15" target="kG0N8SlaPU2TVyJFACg0-17" edge="1">
          <mxGeometry relative="1" as="geometry" />
        </mxCell>
        <mxCell id="kG0N8SlaPU2TVyJFACg0-15" value="&lt;span style=&quot;text-align: left;&quot;&gt;Permitir flujo de energía&lt;/span&gt;" style="whiteSpace=wrap;html=1;" parent="1" vertex="1">
          <mxGeometry x="288.5" y="98.74" width="82" height="40" as="geometry" />
        </mxCell>
        <mxCell id="kG0N8SlaPU2TVyJFACg0-43" style="edgeStyle=orthogonalEdgeStyle;rounded=0;orthogonalLoop=1;jettySize=auto;html=1;entryX=1;entryY=0.5;entryDx=0;entryDy=0;" parent="1" source="kG0N8SlaPU2TVyJFACg0-17" target="kG0N8SlaPU2TVyJFACg0-23" edge="1">
          <mxGeometry relative="1" as="geometry">
            <Array as="points">
              <mxPoint x="450" y="190" />
            </Array>
          </mxGeometry>
        </mxCell>
        <mxCell id="kG0N8SlaPU2TVyJFACg0-17" value="Común&lt;div&gt;AC / DC&lt;/div&gt;" style="whiteSpace=wrap;html=1;" parent="1" vertex="1">
          <mxGeometry x="408" y="97.74000000000001" width="70" height="43" as="geometry" />
        </mxCell>
        <mxCell id="kG0N8SlaPU2TVyJFACg0-44" style="edgeStyle=orthogonalEdgeStyle;rounded=0;orthogonalLoop=1;jettySize=auto;html=1;entryX=0;entryY=0.25;entryDx=0;entryDy=0;exitX=0.784;exitY=1.016;exitDx=0;exitDy=0;exitPerimeter=0;" parent="1" source="kG0N8SlaPU2TVyJFACg0-23" target="kG0N8SlaPU2TVyJFACg0-40" edge="1">
          <mxGeometry relative="1" as="geometry" />
        </mxCell>
        <mxCell id="kG0N8SlaPU2TVyJFACg0-46" value="" style="edgeStyle=orthogonalEdgeStyle;rounded=0;orthogonalLoop=1;jettySize=auto;html=1;" parent="1" source="kG0N8SlaPU2TVyJFACg0-23" target="kG0N8SlaPU2TVyJFACg0-7" edge="1">
          <mxGeometry relative="1" as="geometry" />
        </mxCell>
        <mxCell id="kG0N8SlaPU2TVyJFACg0-23" value="Almacenar" style="whiteSpace=wrap;html=1;" parent="1" vertex="1">
          <mxGeometry x="310" y="170" width="70" height="40" as="geometry" />
        </mxCell>
        <mxCell id="kG0N8SlaPU2TVyJFACg0-29" value="F" style="ellipse;whiteSpace=wrap;html=1;aspect=fixed;" parent="1" vertex="1">
          <mxGeometry x="500" y="150.86" width="18.75" height="18.75" as="geometry" />
        </mxCell>
        <mxCell id="kG0N8SlaPU2TVyJFACg0-34" value="&lt;font style=&quot;font-size: 10px;&quot;&gt;Dominio Energía&lt;/font&gt;" style="rounded=0;whiteSpace=wrap;html=1;" parent="1" vertex="1">
          <mxGeometry x="118" y="70" width="82" height="20" as="geometry" />
        </mxCell>
        <mxCell id="kG0N8SlaPU2TVyJFACg0-40" value="Acondicionar Control" style="whiteSpace=wrap;html=1;align=center;" parent="1" vertex="1">
          <mxGeometry x="403.75" y="234.48" width="78.5" height="34.76" as="geometry" />
        </mxCell>
        <mxCell id="kG0N8SlaPU2TVyJFACg0-45" value="Acondicionar Actuadores" style="whiteSpace=wrap;html=1;align=center;" parent="1" vertex="1">
          <mxGeometry x="210" y="234.48" width="78.5" height="34.76" as="geometry" />
        </mxCell>
        <mxCell id="kG0N8SlaPU2TVyJFACg0-47" style="edgeStyle=orthogonalEdgeStyle;rounded=0;orthogonalLoop=1;jettySize=auto;html=1;entryX=0.998;entryY=0.304;entryDx=0;entryDy=0;entryPerimeter=0;" parent="1" source="kG0N8SlaPU2TVyJFACg0-23" target="kG0N8SlaPU2TVyJFACg0-45" edge="1">
          <mxGeometry relative="1" as="geometry">
            <Array as="points">
              <mxPoint x="320" y="245" />
            </Array>
          </mxGeometry>
        </mxCell>
        <mxCell id="kG0N8SlaPU2TVyJFACg0-48" value="" style="edgeStyle=orthogonalEdgeStyle;rounded=0;orthogonalLoop=1;jettySize=auto;html=1;dashed=1;entryX=-0.149;entryY=0.497;entryDx=0;entryDy=0;entryPerimeter=0;exitX=0.75;exitY=0;exitDx=0;exitDy=0;" parent="1" source="kG0N8SlaPU2TVyJFACg0-23" target="kG0N8SlaPU2TVyJFACg0-29" edge="1">
          <mxGeometry relative="1" as="geometry">
            <mxPoint x="370.5" y="155.86" as="sourcePoint" />
            <mxPoint x="435.5" y="175.86" as="targetPoint" />
            <Array as="points">
              <mxPoint x="363" y="160" />
              <mxPoint x="497" y="160" />
            </Array>
          </mxGeometry>
        </mxCell>
        <mxCell id="kG0N8SlaPU2TVyJFACg0-50" value="" style="edgeStyle=orthogonalEdgeStyle;rounded=0;orthogonalLoop=1;jettySize=auto;html=1;dashed=1;entryX=0.25;entryY=1.043;entryDx=0;entryDy=0;entryPerimeter=0;" parent="1" target="kG0N8SlaPU2TVyJFACg0-10" edge="1">
          <mxGeometry relative="1" as="geometry">
            <mxPoint x="80" y="160" as="sourcePoint" />
            <mxPoint x="145" y="180" as="targetPoint" />
          </mxGeometry>
        </mxCell>
        <mxCell id="kG0N8SlaPU2TVyJFACg0-51" value="" style="rounded=0;whiteSpace=wrap;html=1;fillColor=none;" parent="1" vertex="1">
          <mxGeometry x="134" y="335" width="146" height="295" as="geometry" />
        </mxCell>
        <mxCell id="kG0N8SlaPU2TVyJFACg0-52" value="&lt;font style=&quot;font-size: 10px;&quot;&gt;Dominio Sensores&lt;/font&gt;" style="rounded=0;whiteSpace=wrap;html=1;" parent="1" vertex="1">
          <mxGeometry x="134" y="335" width="100" height="20" as="geometry" />
        </mxCell>
        <mxCell id="kG0N8SlaPU2TVyJFACg0-56" value="Señal de Ph" style="text;html=1;whiteSpace=wrap;strokeColor=none;fillColor=none;align=center;verticalAlign=middle;rounded=0;" parent="1" vertex="1">
          <mxGeometry x="30" y="369" width="60" height="30" as="geometry" />
        </mxCell>
        <mxCell id="kG0N8SlaPU2TVyJFACg0-58" value="Señal de Cond" style="text;html=1;whiteSpace=wrap;strokeColor=none;fillColor=none;align=center;verticalAlign=middle;rounded=0;" parent="1" vertex="1">
          <mxGeometry x="30" y="468" width="60" height="30" as="geometry" />
        </mxCell>
        <mxCell id="kG0N8SlaPU2TVyJFACg0-60" value="Señal de Turb" style="text;html=1;whiteSpace=wrap;strokeColor=none;fillColor=none;align=center;verticalAlign=middle;rounded=0;" parent="1" vertex="1">
          <mxGeometry x="30" y="417.5" width="60" height="30" as="geometry" />
        </mxCell>
        <mxCell id="kG0N8SlaPU2TVyJFACg0-62" value="Señal de O.D" style="text;html=1;whiteSpace=wrap;strokeColor=none;fillColor=none;align=center;verticalAlign=middle;rounded=0;" parent="1" vertex="1">
          <mxGeometry x="30" y="520" width="60" height="30" as="geometry" />
        </mxCell>
        <mxCell id="kG0N8SlaPU2TVyJFACg0-64" value="Señal de Temp" style="text;html=1;whiteSpace=wrap;strokeColor=none;fillColor=none;align=center;verticalAlign=middle;rounded=0;" parent="1" vertex="1">
          <mxGeometry x="30" y="570" width="60" height="30" as="geometry" />
        </mxCell>
        <mxCell id="kG0N8SlaPU2TVyJFACg0-65" value="Sensar&lt;div&gt;Ph&lt;/div&gt;" style="whiteSpace=wrap;html=1;" parent="1" vertex="1">
          <mxGeometry x="175" y="364" width="75" height="40" as="geometry" />
        </mxCell>
        <mxCell id="kG0N8SlaPU2TVyJFACg0-66" value="Sensar&lt;div&gt;Turbidez&lt;/div&gt;" style="whiteSpace=wrap;html=1;" parent="1" vertex="1">
          <mxGeometry x="173.75" y="414" width="77.5" height="37" as="geometry" />
        </mxCell>
        <mxCell id="kG0N8SlaPU2TVyJFACg0-67" value="Sensar&lt;div&gt;Conductividad&lt;/div&gt;" style="whiteSpace=wrap;html=1;" parent="1" vertex="1">
          <mxGeometry x="170.25" y="462" width="84.5" height="42" as="geometry" />
        </mxCell>
        <mxCell id="kG0N8SlaPU2TVyJFACg0-68" value="Sensar&lt;div&gt;O.D&lt;/div&gt;" style="whiteSpace=wrap;html=1;" parent="1" vertex="1">
          <mxGeometry x="174.5" y="515" width="76" height="40" as="geometry" />
        </mxCell>
        <mxCell id="kG0N8SlaPU2TVyJFACg0-69" value="Sensar&lt;div&gt;Temperatura&lt;/div&gt;" style="whiteSpace=wrap;html=1;" parent="1" vertex="1">
          <mxGeometry x="175.5" y="562.5" width="75" height="45" as="geometry" />
        </mxCell>
        <mxCell id="kG0N8SlaPU2TVyJFACg0-81" value="A" style="ellipse;whiteSpace=wrap;html=1;" parent="1" vertex="1">
          <mxGeometry x="320" y="369" width="26.5" height="30" as="geometry" />
        </mxCell>
        <mxCell id="kG0N8SlaPU2TVyJFACg0-93" value="" style="edgeStyle=orthogonalEdgeStyle;rounded=0;orthogonalLoop=1;jettySize=auto;html=1;dashed=1;" parent="1" edge="1">
          <mxGeometry relative="1" as="geometry">
            <mxPoint x="370" y="-770" as="sourcePoint" />
            <mxPoint x="455.94" y="-770" as="targetPoint" />
            <Array as="points">
              <mxPoint x="389.94" y="-770" />
            </Array>
          </mxGeometry>
        </mxCell>
        <mxCell id="kG0N8SlaPU2TVyJFACg0-94" value="B" style="ellipse;whiteSpace=wrap;html=1;" parent="1" vertex="1">
          <mxGeometry x="320" y="417.5" width="26.5" height="30" as="geometry" />
        </mxCell>
        <mxCell id="kG0N8SlaPU2TVyJFACg0-95" value="C" style="ellipse;whiteSpace=wrap;html=1;" parent="1" vertex="1">
          <mxGeometry x="320" y="468" width="26.5" height="30" as="geometry" />
        </mxCell>
        <mxCell id="kG0N8SlaPU2TVyJFACg0-96" value="D" style="ellipse;whiteSpace=wrap;html=1;" parent="1" vertex="1">
          <mxGeometry x="320" y="520" width="26.5" height="30" as="geometry" />
        </mxCell>
        <mxCell id="kG0N8SlaPU2TVyJFACg0-97" value="E" style="ellipse;whiteSpace=wrap;html=1;" parent="1" vertex="1">
          <mxGeometry x="320" y="570" width="26.5" height="30" as="geometry" />
        </mxCell>
        <mxCell id="kG0N8SlaPU2TVyJFACg0-99" value="" style="edgeStyle=orthogonalEdgeStyle;rounded=0;orthogonalLoop=1;jettySize=auto;html=1;dashed=1;entryX=0;entryY=0.5;entryDx=0;entryDy=0;" parent="1" target="kG0N8SlaPU2TVyJFACg0-65" edge="1">
          <mxGeometry relative="1" as="geometry">
            <mxPoint x="103" y="383.83" as="sourcePoint" />
            <mxPoint x="156" y="383.83" as="targetPoint" />
            <Array as="points">
              <mxPoint x="90" y="384" />
            </Array>
          </mxGeometry>
        </mxCell>
        <mxCell id="kG0N8SlaPU2TVyJFACg0-100" value="" style="edgeStyle=orthogonalEdgeStyle;rounded=0;orthogonalLoop=1;jettySize=auto;html=1;dashed=1;entryX=0;entryY=0.5;entryDx=0;entryDy=0;exitX=1;exitY=0.5;exitDx=0;exitDy=0;" parent="1" source="kG0N8SlaPU2TVyJFACg0-60" target="kG0N8SlaPU2TVyJFACg0-66" edge="1">
          <mxGeometry relative="1" as="geometry">
            <mxPoint x="103" y="432.38" as="sourcePoint" />
            <mxPoint x="156" y="432.38" as="targetPoint" />
            <Array as="points" />
          </mxGeometry>
        </mxCell>
        <mxCell id="kG0N8SlaPU2TVyJFACg0-101" value="" style="edgeStyle=orthogonalEdgeStyle;rounded=0;orthogonalLoop=1;jettySize=auto;html=1;dashed=1;entryX=0;entryY=0.5;entryDx=0;entryDy=0;exitX=1;exitY=0.5;exitDx=0;exitDy=0;" parent="1" edge="1">
          <mxGeometry relative="1" as="geometry">
            <mxPoint x="86.25" y="482.88" as="sourcePoint" />
            <mxPoint x="170.25" y="482.88" as="targetPoint" />
            <Array as="points" />
          </mxGeometry>
        </mxCell>
        <mxCell id="kG0N8SlaPU2TVyJFACg0-102" value="" style="edgeStyle=orthogonalEdgeStyle;rounded=0;orthogonalLoop=1;jettySize=auto;html=1;dashed=1;entryX=0;entryY=0.5;entryDx=0;entryDy=0;exitX=1;exitY=0.5;exitDx=0;exitDy=0;" parent="1" edge="1">
          <mxGeometry relative="1" as="geometry">
            <mxPoint x="89.75" y="534.88" as="sourcePoint" />
            <mxPoint x="173.75" y="534.88" as="targetPoint" />
            <Array as="points" />
          </mxGeometry>
        </mxCell>
        <mxCell id="kG0N8SlaPU2TVyJFACg0-103" value="" style="edgeStyle=orthogonalEdgeStyle;rounded=0;orthogonalLoop=1;jettySize=auto;html=1;dashed=1;entryX=0;entryY=0.5;entryDx=0;entryDy=0;exitX=1;exitY=0.5;exitDx=0;exitDy=0;" parent="1" edge="1">
          <mxGeometry relative="1" as="geometry">
            <mxPoint x="91" y="584" as="sourcePoint" />
            <mxPoint x="175" y="584" as="targetPoint" />
            <Array as="points" />
          </mxGeometry>
        </mxCell>
        <mxCell id="kG0N8SlaPU2TVyJFACg0-104" value="" style="edgeStyle=orthogonalEdgeStyle;rounded=0;orthogonalLoop=1;jettySize=auto;html=1;dashed=1;exitX=1;exitY=0.5;exitDx=0;exitDy=0;" parent="1" edge="1">
          <mxGeometry relative="1" as="geometry">
            <mxPoint x="250" y="383.88" as="sourcePoint" />
            <mxPoint x="320" y="384" as="targetPoint" />
            <Array as="points" />
          </mxGeometry>
        </mxCell>
        <mxCell id="kG0N8SlaPU2TVyJFACg0-105" value="" style="edgeStyle=orthogonalEdgeStyle;rounded=0;orthogonalLoop=1;jettySize=auto;html=1;dashed=1;exitX=1;exitY=0.5;exitDx=0;exitDy=0;" parent="1" edge="1">
          <mxGeometry relative="1" as="geometry">
            <mxPoint x="251.25" y="432.38" as="sourcePoint" />
            <mxPoint x="321.25" y="432.5" as="targetPoint" />
            <Array as="points" />
          </mxGeometry>
        </mxCell>
        <mxCell id="kG0N8SlaPU2TVyJFACg0-106" value="" style="edgeStyle=orthogonalEdgeStyle;rounded=0;orthogonalLoop=1;jettySize=auto;html=1;dashed=1;exitX=1;exitY=0.5;exitDx=0;exitDy=0;" parent="1" edge="1">
          <mxGeometry relative="1" as="geometry">
            <mxPoint x="254.75" y="482.88" as="sourcePoint" />
            <mxPoint x="320" y="483" as="targetPoint" />
            <Array as="points" />
          </mxGeometry>
        </mxCell>
        <mxCell id="kG0N8SlaPU2TVyJFACg0-107" value="" style="edgeStyle=orthogonalEdgeStyle;rounded=0;orthogonalLoop=1;jettySize=auto;html=1;dashed=1;exitX=1;exitY=0.5;exitDx=0;exitDy=0;" parent="1" source="kG0N8SlaPU2TVyJFACg0-68" edge="1">
          <mxGeometry relative="1" as="geometry">
            <mxPoint x="249.25" y="534.88" as="sourcePoint" />
            <mxPoint x="319.25" y="535" as="targetPoint" />
            <Array as="points" />
          </mxGeometry>
        </mxCell>
        <mxCell id="kG0N8SlaPU2TVyJFACg0-108" value="" style="edgeStyle=orthogonalEdgeStyle;rounded=0;orthogonalLoop=1;jettySize=auto;html=1;dashed=1;exitX=1;exitY=0.5;exitDx=0;exitDy=0;" parent="1" edge="1">
          <mxGeometry relative="1" as="geometry">
            <mxPoint x="250" y="584" as="sourcePoint" />
            <mxPoint x="320" y="584.12" as="targetPoint" />
            <Array as="points" />
          </mxGeometry>
        </mxCell>
        <mxCell id="kG0N8SlaPU2TVyJFACg0-109" value="A" style="ellipse;whiteSpace=wrap;html=1;" parent="1" vertex="1">
          <mxGeometry x="580" y="90" width="26.5" height="30" as="geometry" />
        </mxCell>
        <mxCell id="kG0N8SlaPU2TVyJFACg0-110" value="B" style="ellipse;whiteSpace=wrap;html=1;" parent="1" vertex="1">
          <mxGeometry x="580" y="138.5" width="26.5" height="30" as="geometry" />
        </mxCell>
        <mxCell id="kG0N8SlaPU2TVyJFACg0-111" value="C" style="ellipse;whiteSpace=wrap;html=1;" parent="1" vertex="1">
          <mxGeometry x="580" y="189" width="26.5" height="30" as="geometry" />
        </mxCell>
        <mxCell id="kG0N8SlaPU2TVyJFACg0-112" value="D" style="ellipse;whiteSpace=wrap;html=1;" parent="1" vertex="1">
          <mxGeometry x="580" y="241" width="26.5" height="30" as="geometry" />
        </mxCell>
        <mxCell id="kG0N8SlaPU2TVyJFACg0-113" value="E" style="ellipse;whiteSpace=wrap;html=1;" parent="1" vertex="1">
          <mxGeometry x="580" y="291" width="26.5" height="30" as="geometry" />
        </mxCell>
        <mxCell id="kG0N8SlaPU2TVyJFACg0-114" value="Recibir Señales" style="whiteSpace=wrap;html=1;" parent="1" vertex="1">
          <mxGeometry x="660" y="90.74" width="100" height="43" as="geometry" />
        </mxCell>
        <mxCell id="kG0N8SlaPU2TVyJFACg0-115" value="" style="edgeStyle=orthogonalEdgeStyle;rounded=0;orthogonalLoop=1;jettySize=auto;html=1;dashed=1;" parent="1" edge="1">
          <mxGeometry relative="1" as="geometry">
            <mxPoint x="619.47" y="104.66" as="sourcePoint" />
            <mxPoint x="660" y="105" as="targetPoint" />
            <Array as="points">
              <mxPoint x="606.47" y="104.66" />
            </Array>
          </mxGeometry>
        </mxCell>
        <mxCell id="kG0N8SlaPU2TVyJFACg0-116" value="" style="edgeStyle=orthogonalEdgeStyle;rounded=0;orthogonalLoop=1;jettySize=auto;html=1;dashed=1;exitX=1;exitY=0.5;exitDx=0;exitDy=0;entryX=0;entryY=0.68;entryDx=0;entryDy=0;entryPerimeter=0;" parent="1" source="kG0N8SlaPU2TVyJFACg0-110" target="kG0N8SlaPU2TVyJFACg0-114" edge="1">
          <mxGeometry relative="1" as="geometry">
            <mxPoint x="619.5" y="153.32999999999998" as="sourcePoint" />
            <mxPoint x="650" y="120" as="targetPoint" />
            <Array as="points">
              <mxPoint x="630" y="154" />
              <mxPoint x="630" y="120" />
            </Array>
          </mxGeometry>
        </mxCell>
        <mxCell id="kG0N8SlaPU2TVyJFACg0-117" value="" style="edgeStyle=orthogonalEdgeStyle;rounded=0;orthogonalLoop=1;jettySize=auto;html=1;dashed=1;entryX=0.121;entryY=1.009;entryDx=0;entryDy=0;entryPerimeter=0;exitX=1;exitY=0.5;exitDx=0;exitDy=0;" parent="1" source="kG0N8SlaPU2TVyJFACg0-111" target="kG0N8SlaPU2TVyJFACg0-114" edge="1">
          <mxGeometry relative="1" as="geometry">
            <mxPoint x="619.5" y="203.82999999999998" as="sourcePoint" />
            <mxPoint x="690" y="160" as="targetPoint" />
            <Array as="points">
              <mxPoint x="630" y="204" />
              <mxPoint x="630" y="170" />
              <mxPoint x="672" y="170" />
            </Array>
          </mxGeometry>
        </mxCell>
        <mxCell id="kG0N8SlaPU2TVyJFACg0-119" value="" style="edgeStyle=orthogonalEdgeStyle;rounded=0;orthogonalLoop=1;jettySize=auto;html=1;dashed=1;entryX=0.25;entryY=1;entryDx=0;entryDy=0;exitX=1;exitY=0.5;exitDx=0;exitDy=0;" parent="1" source="kG0N8SlaPU2TVyJFACg0-112" target="kG0N8SlaPU2TVyJFACg0-114" edge="1">
          <mxGeometry relative="1" as="geometry">
            <mxPoint x="610" y="259" as="sourcePoint" />
            <mxPoint x="675" y="189" as="targetPoint" />
            <Array as="points">
              <mxPoint x="640" y="256" />
              <mxPoint x="640" y="180" />
              <mxPoint x="685" y="180" />
            </Array>
          </mxGeometry>
        </mxCell>
        <mxCell id="kG0N8SlaPU2TVyJFACg0-120" value="" style="edgeStyle=orthogonalEdgeStyle;rounded=0;orthogonalLoop=1;jettySize=auto;html=1;dashed=1;entryX=0.25;entryY=1;entryDx=0;entryDy=0;exitX=1;exitY=0.5;exitDx=0;exitDy=0;" parent="1" source="kG0N8SlaPU2TVyJFACg0-113" edge="1">
          <mxGeometry relative="1" as="geometry">
            <mxPoint x="620" y="255.74" as="sourcePoint" />
            <mxPoint x="698" y="133.74" as="targetPoint" />
            <Array as="points">
              <mxPoint x="653" y="306" />
              <mxPoint x="653" y="190" />
              <mxPoint x="698" y="190" />
            </Array>
          </mxGeometry>
        </mxCell>
        <mxCell id="kG0N8SlaPU2TVyJFACg0-121" value="Comparar variables" style="whiteSpace=wrap;html=1;" parent="1" vertex="1">
          <mxGeometry x="760" y="150.86" width="100" height="43" as="geometry" />
        </mxCell>
        <mxCell id="kG0N8SlaPU2TVyJFACg0-122" value="Establecer&amp;nbsp;&lt;div&gt;alertas&lt;/div&gt;" style="whiteSpace=wrap;html=1;" parent="1" vertex="1">
          <mxGeometry x="805" y="210" width="100" height="43" as="geometry" />
        </mxCell>
        <mxCell id="kG0N8SlaPU2TVyJFACg0-123" value="" style="edgeStyle=orthogonalEdgeStyle;rounded=0;orthogonalLoop=1;jettySize=auto;html=1;dashed=1;entryX=0;entryY=0.5;entryDx=0;entryDy=0;exitX=0.75;exitY=1;exitDx=0;exitDy=0;" parent="1" source="kG0N8SlaPU2TVyJFACg0-114" target="kG0N8SlaPU2TVyJFACg0-121" edge="1">
          <mxGeometry relative="1" as="geometry">
            <mxPoint x="730" y="60" as="sourcePoint" />
            <mxPoint x="785.97" y="40" as="targetPoint" />
            <Array as="points">
              <mxPoint x="735" y="172" />
            </Array>
          </mxGeometry>
        </mxCell>
        <mxCell id="kG0N8SlaPU2TVyJFACg0-124" value="" style="edgeStyle=orthogonalEdgeStyle;rounded=0;orthogonalLoop=1;jettySize=auto;html=1;dashed=1;entryX=0;entryY=0.5;entryDx=0;entryDy=0;exitX=0.75;exitY=1;exitDx=0;exitDy=0;" parent="1" edge="1">
          <mxGeometry relative="1" as="geometry">
            <mxPoint x="780" y="193.86" as="sourcePoint" />
            <mxPoint x="805" y="231.86" as="targetPoint" />
            <Array as="points">
              <mxPoint x="780" y="231.86" />
            </Array>
          </mxGeometry>
        </mxCell>
        <mxCell id="kG0N8SlaPU2TVyJFACg0-125" value="" style="edgeStyle=orthogonalEdgeStyle;rounded=0;orthogonalLoop=1;jettySize=auto;html=1;dashed=1;entryX=0.507;entryY=-0.038;entryDx=0;entryDy=0;entryPerimeter=0;exitX=0.5;exitY=1;exitDx=0;exitDy=0;" parent="1" source="kG0N8SlaPU2TVyJFACg0-114" target="kG0N8SlaPU2TVyJFACg0-126" edge="1">
          <mxGeometry relative="1" as="geometry">
            <mxPoint x="692.97" y="219" as="sourcePoint" />
            <mxPoint x="730" y="240" as="targetPoint" />
            <Array as="points">
              <mxPoint x="710" y="219" />
              <mxPoint x="731" y="219" />
            </Array>
          </mxGeometry>
        </mxCell>
        <mxCell id="kG0N8SlaPU2TVyJFACg0-126" value="Establecer conexión IoT" style="whiteSpace=wrap;html=1;" parent="1" vertex="1">
          <mxGeometry x="680" y="269.24" width="100" height="43" as="geometry" />
        </mxCell>
        <mxCell id="kG0N8SlaPU2TVyJFACg0-127" value="" style="rounded=0;whiteSpace=wrap;html=1;fillColor=none;" parent="1" vertex="1">
          <mxGeometry x="560" y="70" width="370" height="260" as="geometry" />
        </mxCell>
        <mxCell id="kG0N8SlaPU2TVyJFACg0-128" value="&lt;font style=&quot;font-size: 10px;&quot;&gt;Control&lt;/font&gt;" style="rounded=0;whiteSpace=wrap;html=1;" parent="1" vertex="1">
          <mxGeometry x="848" y="70" width="82" height="20" as="geometry" />
        </mxCell>
        <mxCell id="kG0N8SlaPU2TVyJFACg0-130" value="" style="edgeStyle=orthogonalEdgeStyle;rounded=0;orthogonalLoop=1;jettySize=auto;html=1;dashed=1;" parent="1" edge="1">
          <mxGeometry relative="1" as="geometry">
            <mxPoint x="760" y="104.8" as="sourcePoint" />
            <mxPoint x="800.53" y="105.14" as="targetPoint" />
            <Array as="points">
              <mxPoint x="780" y="104.8" />
            </Array>
          </mxGeometry>
        </mxCell>
        <mxCell id="kG0N8SlaPU2TVyJFACg0-131" value="G" style="ellipse;whiteSpace=wrap;html=1;" parent="1" vertex="1">
          <mxGeometry x="801" y="90.74" width="26.5" height="30" as="geometry" />
        </mxCell>
        <mxCell id="kG0N8SlaPU2TVyJFACg0-132" value="Indicar datos" style="whiteSpace=wrap;html=1;" parent="1" vertex="1">
          <mxGeometry x="506.5" y="399" width="100" height="43" as="geometry" />
        </mxCell>
        <mxCell id="kG0N8SlaPU2TVyJFACg0-133" value="Indicar nivel de batería" style="whiteSpace=wrap;html=1;" parent="1" vertex="1">
          <mxGeometry x="506.5" y="477" width="100" height="43" as="geometry" />
        </mxCell>
        <mxCell id="kG0N8SlaPU2TVyJFACg0-135" value="Indicar Alertas" style="whiteSpace=wrap;html=1;" parent="1" vertex="1">
          <mxGeometry x="730" y="477" width="100" height="43" as="geometry" />
        </mxCell>
        <mxCell id="kG0N8SlaPU2TVyJFACg0-136" value="" style="rounded=0;whiteSpace=wrap;html=1;fillColor=none;" parent="1" vertex="1">
          <mxGeometry x="470" y="352" width="420" height="228" as="geometry" />
        </mxCell>
        <mxCell id="kG0N8SlaPU2TVyJFACg0-137" value="&lt;font style=&quot;font-size: 10px;&quot;&gt;Dominio Actuadores&lt;/font&gt;" style="rounded=0;whiteSpace=wrap;html=1;" parent="1" vertex="1">
          <mxGeometry x="470" y="352.5" width="110" height="20" as="geometry" />
        </mxCell>
        <mxCell id="kG0N8SlaPU2TVyJFACg0-138" value="G" style="ellipse;whiteSpace=wrap;html=1;" parent="1" vertex="1">
          <mxGeometry x="400" y="405.5" width="26.5" height="30" as="geometry" />
        </mxCell>
        <mxCell id="kG0N8SlaPU2TVyJFACg0-139" value="F" style="ellipse;whiteSpace=wrap;html=1;" parent="1" vertex="1">
          <mxGeometry x="400" y="483.5" width="26.5" height="30" as="geometry" />
        </mxCell>
        <mxCell id="kG0N8SlaPU2TVyJFACg0-140" value="" style="edgeStyle=orthogonalEdgeStyle;rounded=0;orthogonalLoop=1;jettySize=auto;html=1;dashed=1;exitX=1;exitY=0.5;exitDx=0;exitDy=0;entryX=0;entryY=0.5;entryDx=0;entryDy=0;" parent="1" target="kG0N8SlaPU2TVyJFACg0-132" edge="1">
          <mxGeometry relative="1" as="geometry">
            <mxPoint x="426.5" y="420.3" as="sourcePoint" />
            <mxPoint x="496.5" y="420.42" as="targetPoint" />
            <Array as="points" />
          </mxGeometry>
        </mxCell>
        <mxCell id="kG0N8SlaPU2TVyJFACg0-142" value="" style="edgeStyle=orthogonalEdgeStyle;rounded=0;orthogonalLoop=1;jettySize=auto;html=1;dashed=1;exitX=1;exitY=0.5;exitDx=0;exitDy=0;entryX=0;entryY=0.5;entryDx=0;entryDy=0;" parent="1" edge="1">
          <mxGeometry relative="1" as="geometry">
            <mxPoint x="426.5" y="498" as="sourcePoint" />
            <mxPoint x="507" y="498.7" as="targetPoint" />
            <Array as="points" />
          </mxGeometry>
        </mxCell>
        <mxCell id="kG0N8SlaPU2TVyJFACg0-143" value="Ejecutar datos" style="whiteSpace=wrap;html=1;" parent="1" vertex="1">
          <mxGeometry x="810" y="269.24" width="100" height="43" as="geometry" />
        </mxCell>
        <mxCell id="kG0N8SlaPU2TVyJFACg0-144" value="" style="edgeStyle=orthogonalEdgeStyle;rounded=0;orthogonalLoop=1;jettySize=auto;html=1;dashed=1;exitX=1;exitY=0.5;exitDx=0;exitDy=0;" parent="1" edge="1">
          <mxGeometry relative="1" as="geometry">
            <mxPoint x="779.5" y="290" as="sourcePoint" />
            <mxPoint x="810" y="290" as="targetPoint" />
            <Array as="points" />
          </mxGeometry>
        </mxCell>
        <mxCell id="kG0N8SlaPU2TVyJFACg0-146" value="" style="edgeStyle=orthogonalEdgeStyle;rounded=0;orthogonalLoop=1;jettySize=auto;html=1;dashed=1;exitX=0.996;exitY=0.48;exitDx=0;exitDy=0;exitPerimeter=0;" parent="1" source="kG0N8SlaPU2TVyJFACg0-122" edge="1">
          <mxGeometry relative="1" as="geometry">
            <mxPoint x="930" y="220" as="sourcePoint" />
            <mxPoint x="950" y="230" as="targetPoint" />
            <Array as="points">
              <mxPoint x="920" y="231" />
            </Array>
          </mxGeometry>
        </mxCell>
        <mxCell id="kG0N8SlaPU2TVyJFACg0-149" value="" style="rounded=0;whiteSpace=wrap;html=1;fillColor=none;strokeColor=default;" parent="1" vertex="1">
          <mxGeometry x="110" y="49.24" width="890" height="610.76" as="geometry" />
        </mxCell>
        <mxCell id="kG0N8SlaPU2TVyJFACg0-150" value="" style="edgeStyle=orthogonalEdgeStyle;rounded=0;orthogonalLoop=1;jettySize=auto;html=1;dashed=1;exitX=0.75;exitY=0;exitDx=0;exitDy=0;entryX=0;entryY=0.5;entryDx=0;entryDy=0;" parent="1" source="kG0N8SlaPU2TVyJFACg0-132" target="kG0N8SlaPU2TVyJFACg0-151" edge="1">
          <mxGeometry relative="1" as="geometry">
            <mxPoint x="607" y="384" as="sourcePoint" />
            <mxPoint x="990" y="220" as="targetPoint" />
            <Array as="points">
              <mxPoint x="580" y="399" />
              <mxPoint x="580" y="380" />
              <mxPoint x="1030" y="380" />
              <mxPoint x="1030" y="219" />
              <mxPoint x="1121" y="219" />
            </Array>
          </mxGeometry>
        </mxCell>
        <mxCell id="kG0N8SlaPU2TVyJFACg0-151" value="Señal de conclusión de medición" style="text;html=1;whiteSpace=wrap;strokeColor=none;fillColor=none;align=center;verticalAlign=middle;rounded=0;" parent="1" vertex="1">
          <mxGeometry x="1121" y="203" width="120" height="30" as="geometry" />
        </mxCell>
        <mxCell id="kG0N8SlaPU2TVyJFACg0-154" value="" style="edgeStyle=orthogonalEdgeStyle;rounded=0;orthogonalLoop=1;jettySize=auto;html=1;dashed=1;entryX=0;entryY=0.5;entryDx=0;entryDy=0;exitX=1;exitY=0.5;exitDx=0;exitDy=0;" parent="1" source="kG0N8SlaPU2TVyJFACg0-134" target="kG0N8SlaPU2TVyJFACg0-156" edge="1">
          <mxGeometry relative="1" as="geometry">
            <mxPoint x="930" y="440" as="sourcePoint" />
            <mxPoint x="1070" y="280" as="targetPoint" />
            <Array as="points">
              <mxPoint x="1050" y="421" />
              <mxPoint x="1050" y="276" />
              <mxPoint x="1121" y="276" />
            </Array>
          </mxGeometry>
        </mxCell>
        <mxCell id="kG0N8SlaPU2TVyJFACg0-156" value="Señal de información" style="text;html=1;whiteSpace=wrap;strokeColor=none;fillColor=none;align=center;verticalAlign=middle;rounded=0;" parent="1" vertex="1">
          <mxGeometry x="1121" y="260" width="120" height="30" as="geometry" />
        </mxCell>
        <mxCell id="kG0N8SlaPU2TVyJFACg0-157" value="" style="edgeStyle=orthogonalEdgeStyle;rounded=0;orthogonalLoop=1;jettySize=auto;html=1;dashed=1;exitX=0.75;exitY=0;exitDx=0;exitDy=0;entryX=0;entryY=0.5;entryDx=0;entryDy=0;" parent="1" source="kG0N8SlaPU2TVyJFACg0-135" target="kG0N8SlaPU2TVyJFACg0-158" edge="1">
          <mxGeometry relative="1" as="geometry">
            <mxPoint x="774.5" y="504" as="sourcePoint" />
            <mxPoint x="1050" y="310" as="targetPoint" />
            <Array as="points">
              <mxPoint x="805" y="460" />
              <mxPoint x="1070" y="460" />
              <mxPoint x="1070" y="315" />
              <mxPoint x="1121" y="315" />
            </Array>
          </mxGeometry>
        </mxCell>
        <mxCell id="kG0N8SlaPU2TVyJFACg0-158" value="Señal de alertas" style="text;html=1;whiteSpace=wrap;strokeColor=none;fillColor=none;align=center;verticalAlign=middle;rounded=0;" parent="1" vertex="1">
          <mxGeometry x="1121" y="299" width="120" height="30" as="geometry" />
        </mxCell>
        <mxCell id="kG0N8SlaPU2TVyJFACg0-159" value="H" style="ellipse;whiteSpace=wrap;html=1;" parent="1" vertex="1">
          <mxGeometry x="950" y="216.5" width="26.5" height="30" as="geometry" />
        </mxCell>
        <mxCell id="kG0N8SlaPU2TVyJFACg0-160" value="" style="edgeStyle=orthogonalEdgeStyle;rounded=0;orthogonalLoop=1;jettySize=auto;html=1;dashed=1;exitX=0.996;exitY=0.48;exitDx=0;exitDy=0;exitPerimeter=0;entryX=0;entryY=0.5;entryDx=0;entryDy=0;" parent="1" target="kG0N8SlaPU2TVyJFACg0-161" edge="1">
          <mxGeometry relative="1" as="geometry">
            <mxPoint x="910" y="291" as="sourcePoint" />
            <mxPoint x="955" y="290" as="targetPoint" />
            <Array as="points">
              <mxPoint x="925" y="291" />
            </Array>
          </mxGeometry>
        </mxCell>
        <mxCell id="kG0N8SlaPU2TVyJFACg0-161" value="I" style="ellipse;whiteSpace=wrap;html=1;" parent="1" vertex="1">
          <mxGeometry x="957" y="275.74" width="26.5" height="30" as="geometry" />
        </mxCell>
        <mxCell id="kG0N8SlaPU2TVyJFACg0-162" value="" style="edgeStyle=orthogonalEdgeStyle;rounded=0;orthogonalLoop=1;jettySize=auto;html=1;dashed=1;exitX=1;exitY=0.5;exitDx=0;exitDy=0;entryX=0;entryY=0.5;entryDx=0;entryDy=0;" parent="1" target="kG0N8SlaPU2TVyJFACg0-134" edge="1">
          <mxGeometry relative="1" as="geometry">
            <mxPoint x="770" y="419.5" as="sourcePoint" />
            <mxPoint x="1080" y="276" as="targetPoint" />
            <Array as="points" />
          </mxGeometry>
        </mxCell>
        <mxCell id="kG0N8SlaPU2TVyJFACg0-134" value="Enviar datos IoT" style="whiteSpace=wrap;html=1;" parent="1" vertex="1">
          <mxGeometry x="730" y="399" width="100" height="43" as="geometry" />
        </mxCell>
        <mxCell id="kG0N8SlaPU2TVyJFACg0-164" value="I" style="ellipse;whiteSpace=wrap;html=1;" parent="1" vertex="1">
          <mxGeometry x="653.5" y="404" width="26.5" height="30" as="geometry" />
        </mxCell>
        <mxCell id="kG0N8SlaPU2TVyJFACg0-165" value="H" style="ellipse;whiteSpace=wrap;html=1;" parent="1" vertex="1">
          <mxGeometry x="653.5" y="483.5" width="26.5" height="30" as="geometry" />
        </mxCell>
        <mxCell id="kG0N8SlaPU2TVyJFACg0-166" value="" style="edgeStyle=orthogonalEdgeStyle;rounded=0;orthogonalLoop=1;jettySize=auto;html=1;dashed=1;exitX=0.996;exitY=0.48;exitDx=0;exitDy=0;exitPerimeter=0;entryX=0;entryY=0.5;entryDx=0;entryDy=0;" parent="1" target="kG0N8SlaPU2TVyJFACg0-134" edge="1">
          <mxGeometry relative="1" as="geometry">
            <mxPoint x="680" y="421" as="sourcePoint" />
            <mxPoint x="725" y="420" as="targetPoint" />
            <Array as="points">
              <mxPoint x="695" y="421" />
            </Array>
          </mxGeometry>
        </mxCell>
        <mxCell id="kG0N8SlaPU2TVyJFACg0-167" value="" style="edgeStyle=orthogonalEdgeStyle;rounded=0;orthogonalLoop=1;jettySize=auto;html=1;dashed=1;exitX=0.996;exitY=0.48;exitDx=0;exitDy=0;exitPerimeter=0;entryX=0;entryY=0.5;entryDx=0;entryDy=0;" parent="1" edge="1">
          <mxGeometry relative="1" as="geometry">
            <mxPoint x="680" y="498.21" as="sourcePoint" />
            <mxPoint x="730" y="498.21" as="targetPoint" />
            <Array as="points">
              <mxPoint x="695" y="498.21" />
            </Array>
          </mxGeometry>
        </mxCell>
        <mxCell id="kG0N8SlaPU2TVyJFACg0-168" value="" style="edgeStyle=orthogonalEdgeStyle;rounded=0;orthogonalLoop=1;jettySize=auto;html=1;dashed=1;exitX=0.75;exitY=1;exitDx=0;exitDy=0;entryX=0;entryY=0.5;entryDx=0;entryDy=0;" parent="1" source="kG0N8SlaPU2TVyJFACg0-133" target="kG0N8SlaPU2TVyJFACg0-169" edge="1">
          <mxGeometry relative="1" as="geometry">
            <mxPoint x="730" y="585" as="sourcePoint" />
            <mxPoint x="1005" y="423" as="targetPoint" />
            <Array as="points">
              <mxPoint x="582" y="540" />
              <mxPoint x="1090" y="540" />
              <mxPoint x="1090" y="350" />
              <mxPoint x="1121" y="350" />
            </Array>
          </mxGeometry>
        </mxCell>
        <mxCell id="kG0N8SlaPU2TVyJFACg0-169" value="Señal indicador de batería" style="text;html=1;whiteSpace=wrap;strokeColor=none;fillColor=none;align=center;verticalAlign=middle;rounded=0;" parent="1" vertex="1">
          <mxGeometry x="1121" y="334" width="120" height="30" as="geometry" />
        </mxCell>
        <mxCell id="2RuyVWujvj97jNvMUF2P-4" value="Señal de conclusión de medición" style="text;html=1;whiteSpace=wrap;strokeColor=none;fillColor=none;align=center;verticalAlign=middle;rounded=0;" vertex="1" parent="1">
          <mxGeometry x="1260" y="-684.97" width="120" height="30" as="geometry" />
        </mxCell>
        <mxCell id="2RuyVWujvj97jNvMUF2P-5" value="Señal de información" style="text;html=1;whiteSpace=wrap;strokeColor=none;fillColor=none;align=center;verticalAlign=middle;rounded=0;" vertex="1" parent="1">
          <mxGeometry x="1260" y="-627.97" width="120" height="30" as="geometry" />
        </mxCell>
        <mxCell id="2RuyVWujvj97jNvMUF2P-6" value="Señal de alertas" style="text;html=1;whiteSpace=wrap;strokeColor=none;fillColor=none;align=center;verticalAlign=middle;rounded=0;" vertex="1" parent="1">
          <mxGeometry x="1260" y="-588.97" width="120" height="30" as="geometry" />
        </mxCell>
        <mxCell id="2RuyVWujvj97jNvMUF2P-7" value="Señal indicador de batería" style="text;html=1;whiteSpace=wrap;strokeColor=none;fillColor=none;align=center;verticalAlign=middle;rounded=0;" vertex="1" parent="1">
          <mxGeometry x="1260" y="-553.97" width="120" height="30" as="geometry" />
        </mxCell>
        <mxCell id="2RuyVWujvj97jNvMUF2P-8" value="" style="edgeStyle=orthogonalEdgeStyle;rounded=0;orthogonalLoop=1;jettySize=auto;html=1;dashed=1;exitX=0.75;exitY=0;exitDx=0;exitDy=0;entryX=0;entryY=0.5;entryDx=0;entryDy=0;" edge="1" parent="1">
          <mxGeometry relative="1" as="geometry">
            <mxPoint x="721" y="-494" as="sourcePoint" />
            <mxPoint x="1260" y="-675" as="targetPoint" />
            <Array as="points">
              <mxPoint x="721" y="-520.03" />
              <mxPoint x="719" y="-520.03" />
              <mxPoint x="719" y="-513.03" />
              <mxPoint x="1169" y="-513.03" />
              <mxPoint x="1169" y="-674.03" />
            </Array>
          </mxGeometry>
        </mxCell>
        <mxCell id="2RuyVWujvj97jNvMUF2P-9" value="" style="edgeStyle=orthogonalEdgeStyle;rounded=0;orthogonalLoop=1;jettySize=auto;html=1;dashed=1;entryX=0;entryY=0.5;entryDx=0;entryDy=0;exitX=1;exitY=0.5;exitDx=0;exitDy=0;" edge="1" parent="1">
          <mxGeometry relative="1" as="geometry">
            <mxPoint x="960" y="-465.97" as="sourcePoint" />
            <mxPoint x="1251" y="-611.97" as="targetPoint" />
            <Array as="points">
              <mxPoint x="1180" y="-465.97" />
              <mxPoint x="1180" y="-610.97" />
              <mxPoint x="1251" y="-610.97" />
            </Array>
          </mxGeometry>
        </mxCell>
        <mxCell id="2RuyVWujvj97jNvMUF2P-10" value="" style="edgeStyle=orthogonalEdgeStyle;rounded=0;orthogonalLoop=1;jettySize=auto;html=1;dashed=1;exitX=0.75;exitY=0;exitDx=0;exitDy=0;entryX=0;entryY=0.5;entryDx=0;entryDy=0;" edge="1" parent="1">
          <mxGeometry relative="1" as="geometry">
            <mxPoint x="940" y="-407" as="sourcePoint" />
            <mxPoint x="1256" y="-570" as="targetPoint" />
            <Array as="points">
              <mxPoint x="940" y="-424" />
              <mxPoint x="1205" y="-424" />
              <mxPoint x="1205" y="-569" />
              <mxPoint x="1256" y="-569" />
            </Array>
          </mxGeometry>
        </mxCell>
        <mxCell id="2RuyVWujvj97jNvMUF2P-11" value="" style="edgeStyle=orthogonalEdgeStyle;rounded=0;orthogonalLoop=1;jettySize=auto;html=1;dashed=1;exitX=0.75;exitY=1;exitDx=0;exitDy=0;entryX=0;entryY=0.5;entryDx=0;entryDy=0;" edge="1" parent="1">
          <mxGeometry relative="1" as="geometry">
            <mxPoint x="721" y="-369" as="sourcePoint" />
            <mxPoint x="1260" y="-540" as="targetPoint" />
            <Array as="points">
              <mxPoint x="721" y="-349" />
              <mxPoint x="1229" y="-349" />
              <mxPoint x="1229" y="-539" />
              <mxPoint x="1260" y="-539" />
            </Array>
          </mxGeometry>
        </mxCell>
        <mxCell id="2RuyVWujvj97jNvMUF2P-12" value="Energía" style="text;html=1;whiteSpace=wrap;strokeColor=none;fillColor=none;align=center;verticalAlign=middle;rounded=0;" vertex="1" parent="1">
          <mxGeometry x="299" y="-822.1" width="60" height="30" as="geometry" />
        </mxCell>
        <mxCell id="2RuyVWujvj97jNvMUF2P-13" value="Señal&amp;nbsp;&lt;div&gt;ON / OFF&lt;/div&gt;" style="text;html=1;whiteSpace=wrap;strokeColor=none;fillColor=none;align=center;verticalAlign=middle;rounded=0;" vertex="1" parent="1">
          <mxGeometry x="299" y="-780.6" width="60" height="30" as="geometry" />
        </mxCell>
        <mxCell id="2RuyVWujvj97jNvMUF2P-14" value="Señal de Ph" style="text;html=1;whiteSpace=wrap;strokeColor=none;fillColor=none;align=center;verticalAlign=middle;rounded=0;" vertex="1" parent="1">
          <mxGeometry x="288.5" y="-550" width="60" height="30" as="geometry" />
        </mxCell>
        <mxCell id="2RuyVWujvj97jNvMUF2P-15" value="Señal de Cond" style="text;html=1;whiteSpace=wrap;strokeColor=none;fillColor=none;align=center;verticalAlign=middle;rounded=0;" vertex="1" parent="1">
          <mxGeometry x="290" y="-435.84000000000003" width="60" height="30" as="geometry" />
        </mxCell>
        <mxCell id="2RuyVWujvj97jNvMUF2P-16" value="Señal de Turb" style="text;html=1;whiteSpace=wrap;strokeColor=none;fillColor=none;align=center;verticalAlign=middle;rounded=0;" vertex="1" parent="1">
          <mxGeometry x="288.5" y="-487.84000000000003" width="60" height="30" as="geometry" />
        </mxCell>
        <mxCell id="2RuyVWujvj97jNvMUF2P-17" value="Señal de O.D" style="text;html=1;whiteSpace=wrap;strokeColor=none;fillColor=none;align=center;verticalAlign=middle;rounded=0;" vertex="1" parent="1">
          <mxGeometry x="290" y="-385.84000000000003" width="60" height="30" as="geometry" />
        </mxCell>
        <mxCell id="2RuyVWujvj97jNvMUF2P-18" value="Señal de Temp" style="text;html=1;whiteSpace=wrap;strokeColor=none;fillColor=none;align=center;verticalAlign=middle;rounded=0;" vertex="1" parent="1">
          <mxGeometry x="290" y="-340.00000000000006" width="60" height="30" as="geometry" />
        </mxCell>
        <mxCell id="2RuyVWujvj97jNvMUF2P-20" value="" style="edgeStyle=orthogonalEdgeStyle;rounded=0;orthogonalLoop=1;jettySize=auto;html=1;dashed=1;exitX=1;exitY=0.5;exitDx=0;exitDy=0;entryX=0;entryY=0.594;entryDx=0;entryDy=0;entryPerimeter=0;" edge="1" parent="1">
          <mxGeometry relative="1" as="geometry">
            <mxPoint x="345" y="-526.7900000000001" as="sourcePoint" />
            <mxPoint x="465" y="-526.8363" as="targetPoint" />
            <Array as="points" />
          </mxGeometry>
        </mxCell>
        <mxCell id="2RuyVWujvj97jNvMUF2P-21" value="" style="rounded=0;whiteSpace=wrap;html=1;strokeColor=#36393d;fillColor=#000000;" vertex="1" parent="1">
          <mxGeometry x="440" y="-822.1" width="690" height="512.1" as="geometry" />
        </mxCell>
        <mxCell id="2RuyVWujvj97jNvMUF2P-22" value="" style="edgeStyle=orthogonalEdgeStyle;rounded=0;orthogonalLoop=1;jettySize=auto;html=1;dashed=1;exitX=1;exitY=0.5;exitDx=0;exitDy=0;entryX=0;entryY=0.594;entryDx=0;entryDy=0;entryPerimeter=0;" edge="1" parent="1">
          <mxGeometry relative="1" as="geometry">
            <mxPoint x="345" y="-469.9537" as="sourcePoint" />
            <mxPoint x="465" y="-470" as="targetPoint" />
            <Array as="points" />
          </mxGeometry>
        </mxCell>
        <mxCell id="2RuyVWujvj97jNvMUF2P-23" value="" style="edgeStyle=orthogonalEdgeStyle;rounded=0;orthogonalLoop=1;jettySize=auto;html=1;dashed=1;exitX=1;exitY=0.5;exitDx=0;exitDy=0;entryX=0;entryY=0.594;entryDx=0;entryDy=0;entryPerimeter=0;" edge="1" parent="1">
          <mxGeometry relative="1" as="geometry">
            <mxPoint x="345" y="-419.9537" as="sourcePoint" />
            <mxPoint x="465" y="-420" as="targetPoint" />
            <Array as="points" />
          </mxGeometry>
        </mxCell>
        <mxCell id="2RuyVWujvj97jNvMUF2P-24" value="" style="edgeStyle=orthogonalEdgeStyle;rounded=0;orthogonalLoop=1;jettySize=auto;html=1;dashed=1;exitX=1;exitY=0.5;exitDx=0;exitDy=0;entryX=0;entryY=0.594;entryDx=0;entryDy=0;entryPerimeter=0;" edge="1" parent="1">
          <mxGeometry relative="1" as="geometry">
            <mxPoint x="345" y="-369.9537" as="sourcePoint" />
            <mxPoint x="465" y="-370" as="targetPoint" />
            <Array as="points" />
          </mxGeometry>
        </mxCell>
        <mxCell id="2RuyVWujvj97jNvMUF2P-25" value="" style="edgeStyle=orthogonalEdgeStyle;rounded=0;orthogonalLoop=1;jettySize=auto;html=1;dashed=1;exitX=1;exitY=0.5;exitDx=0;exitDy=0;entryX=0;entryY=0.594;entryDx=0;entryDy=0;entryPerimeter=0;" edge="1" parent="1">
          <mxGeometry relative="1" as="geometry">
            <mxPoint x="345" y="-319.9537" as="sourcePoint" />
            <mxPoint x="465" y="-320" as="targetPoint" />
            <Array as="points" />
          </mxGeometry>
        </mxCell>
        <mxCell id="2RuyVWujvj97jNvMUF2P-26" value="" style="edgeStyle=orthogonalEdgeStyle;rounded=0;orthogonalLoop=1;jettySize=auto;html=1;" edge="1" parent="1">
          <mxGeometry relative="1" as="geometry">
            <mxPoint x="370" y="-800" as="sourcePoint" />
            <mxPoint x="465" y="-800" as="targetPoint" />
            <Array as="points">
              <mxPoint x="445" y="-800" />
              <mxPoint x="445" y="-800" />
            </Array>
          </mxGeometry>
        </mxCell>
      </root>
    </mxGraphModel>
  </diagram>
</mxfile>
